<?xml version="1.0" encoding="UTF-8"?>
<svg width="48px" height="48px" viewBox="0 0 48 48" version="1.1" xmlns="http://www.w3.org/2000/svg" xmlns:xlink="http://www.w3.org/1999/xlink">
    <!-- Generator: Sketch 47.1 (45422) - http://www.bohemiancoding.com/sketch -->
    <title>ideogram-89</title>
    <desc>Created with Sketch.</desc>
    <defs></defs>
    <g id="ideogram-48" stroke="none" stroke-width="1" fill="none" fill-rule="evenodd" stroke-linecap="square">
        <g id="ideogram-89" stroke="#4E08BC" stroke-width="2">
            <g id="b-love" transform="translate(2.000000, 2.000000)">
                <path d="M18,41.672 C18,40.464 17.471,39.315 16.524,38.564 C15.078,37.416 12.57,36 9,36 C5.43,36 2.922,37.416 1.476,38.564 C0.529,39.315 0,40.464 0,41.672 L0,44 L18,44 L18,41.672 Z" id="Shape"></path>
                <circle id="Oval" cx="9" cy="26" r="5"></circle>
                <path d="M44,41.672 C44,40.464 43.471,39.315 42.524,38.564 C41.078,37.416 38.57,36 35,36 C31.43,36 28.922,37.416 27.476,38.564 C26.529,39.315 26,40.464 26,41.672 L26,44 L44,44 L44,41.672 Z" id="Shape"></path>
                <circle id="Oval" cx="35" cy="26" r="5"></circle>
                <path d="M29.562,1.443 C27.373,-0.755 23.719,-0.396 22,2.204 C20.279,-0.398 16.625,-0.752 14.438,1.443 C12.521,3.367 12.521,6.487 14.438,8.41 L21.999,16 L29.562,8.41 C31.479,6.486 31.479,3.367 29.562,1.443 Z" id="Shape"></path>
            </g>
        </g>
    </g>
</svg>